# xmcd
# 
# Track frame offsets:
#     150
#     18053
#     39675
#     55784
#     75482
#     92064
#     110145
#     127020
#     142787
#     163286
#     181497
# 
# Disc length: 2547
# 
# Revision: 0
# Processed by: cddbd v1.5.2PL0 Copyright (c) Steve Scherf et al.
# Submitted via: fre:ac v1.0.31
# 
DISCID=8d09f10b
DTITLE=Brian Simpson and Steve Oliver - Unified
DYEAR=0
DGENRE=Jazz
TTITLE0=UNIFIED
TTITLE1=THE ROAD NEVER ENDS
TTITLE2=WHAT THE WIND KNOWS
TTITLE3=FIRED UP
TTITLE4=LAST SUMMER
TTITLE5=LIKE NO OTHER
TTITLE6=THE WAY HOME
TTITLE7=CELESTIAL BODY
TTITLE8=CAFÉ DU MONDE
TTITLE9=A DISTANT LOVE
TTITLE10=AND THEN YOU LOVED ME
EXTD=
EXTT0=
EXTT1=
EXTT2=
EXTT3=
EXTT4=
EXTT5=
EXTT6=
EXTT7=
EXTT8=
EXTT9=
EXTT10=
PLAYORDER=
